<svg width="1343" height="329" viewBox="0 0 1343 329" fill="none" xmlns="http://www.w3.org/2000/svg">
<g clip-path="url(#clip0)">
<path d="M1319.6 142.651H1328.38V144.903H1325.33V154.261H1322.65V144.903H1319.6V142.651Z" fill="#3B4D57"/>
<path d="M1335.95 149.831L1338.97 142.651H1342.82V154.261H1340.15V145.871L1336.67 154.261H1335.24L1331.78 145.84V154.261H1329.1V142.651H1332.97L1335.95 149.831Z" fill="#3B4D57"/>
<path d="M430.128 218.68C419.501 218.68 409.887 216.311 401.284 211.573C392.682 206.834 385.919 200.302 380.997 191.975C376.121 183.603 373.683 174.218 373.683 163.822C373.683 153.379 376.121 143.994 380.997 135.668C385.919 127.295 392.659 120.763 401.215 116.071C409.818 111.333 419.455 108.963 430.128 108.963C438.224 108.963 445.907 110.435 453.175 113.38C460.49 116.324 466.677 120.464 471.737 125.8L454.9 141.464C451.864 137.922 448.207 135.208 443.929 133.322C439.697 131.436 435.096 130.493 430.128 130.493C423.964 130.493 418.351 131.942 413.291 134.84C408.277 137.692 404.32 141.671 401.422 146.778C398.57 151.838 397.144 157.519 397.144 163.822C397.144 170.078 398.593 175.759 401.491 180.866C404.389 185.926 408.346 189.905 413.36 192.803C418.374 195.702 423.964 197.151 430.128 197.151C435.05 197.151 439.628 196.208 443.86 194.321C448.092 192.435 451.726 189.813 454.762 186.455L471.668 202.05C466.516 207.294 460.329 211.389 453.106 214.333C445.884 217.231 438.224 218.68 430.128 218.68Z" fill="#3B4D57"/>
<path d="M515.663 218.197C507.612 218.197 500.413 216.587 494.064 213.367C487.762 210.146 482.84 205.661 479.298 199.911C475.755 194.16 473.984 187.605 473.984 180.245C473.984 172.93 475.755 166.398 479.298 160.647C482.84 154.897 487.762 150.412 494.064 147.192C500.413 143.971 507.612 142.361 515.663 142.361C523.575 142.361 530.683 143.971 536.985 147.192C543.287 150.412 548.21 154.897 551.752 160.647C555.294 166.398 557.065 172.93 557.065 180.245C557.065 187.605 555.294 194.16 551.752 199.911C548.21 205.661 543.287 210.146 536.985 213.367C530.683 216.587 523.575 218.197 515.663 218.197ZM515.525 199.359C519.021 199.359 522.218 198.554 525.116 196.944C528.014 195.334 530.315 193.079 532.017 190.181C533.719 187.283 534.57 183.971 534.57 180.245C534.57 176.564 533.719 173.275 532.017 170.377C530.315 167.479 528.014 165.225 525.116 163.615C522.218 162.005 519.021 161.2 515.525 161.2C512.029 161.2 508.831 162.005 505.933 163.615C503.035 165.179 500.735 167.41 499.033 170.308C497.377 173.16 496.549 176.472 496.549 180.245C496.549 184.017 497.377 187.352 499.033 190.25C500.735 193.148 503.035 195.403 505.933 197.013C508.831 198.577 512.029 199.359 515.525 199.359Z" fill="#3B4D57"/>
<path d="M599.817 218.197C592.917 218.197 586.638 216.541 580.979 213.229C575.321 209.87 570.859 205.293 567.592 199.497C564.372 193.7 562.762 187.283 562.762 180.245C562.762 173.16 564.372 166.743 567.592 160.992C570.859 155.196 575.321 150.642 580.979 147.33C586.638 144.017 592.917 142.361 599.817 142.361C604.142 142.361 608.213 143.051 612.031 144.431C615.849 145.812 619.231 147.79 622.175 150.366V110.826H644.739V216.817H622.175V210.192C619.277 212.815 615.895 214.816 612.031 216.196C608.213 217.53 604.142 218.197 599.817 218.197ZM604.303 199.359C607.799 199.359 610.996 198.554 613.894 196.944C616.792 195.334 619.093 193.079 620.795 190.181C622.497 187.283 623.348 183.971 623.348 180.245C623.348 176.564 622.497 173.275 620.795 170.377C619.093 167.479 616.792 165.225 613.894 163.615C610.996 162.005 607.799 161.2 604.303 161.2C600.806 161.2 597.609 162.005 594.711 163.615C591.813 165.179 589.513 167.41 587.811 170.308C586.155 173.16 585.327 176.472 585.327 180.245C585.327 184.017 586.155 187.352 587.811 190.25C589.513 193.148 591.813 195.403 594.711 197.013C597.609 198.577 600.806 199.359 604.303 199.359Z" fill="#3B4D57"/>
<path d="M734.736 180.245C734.736 181.993 734.644 183.603 734.46 185.075H674.634C675.554 189.859 677.693 193.608 681.051 196.323C684.455 199.037 688.504 200.394 693.196 200.394C696.646 200.394 699.774 199.589 702.58 197.979C705.387 196.323 707.526 194.045 708.998 191.147L729.423 199.98C726.111 205.316 721.373 209.686 715.208 213.091C709.044 216.495 701.752 218.197 693.334 218.197C684.869 218.197 677.486 216.541 671.184 213.229C664.881 209.87 660.051 205.316 656.693 199.566C653.335 193.815 651.655 187.398 651.655 180.314C651.655 172.953 653.427 166.398 656.969 160.647C660.511 154.897 665.433 150.412 671.736 147.192C678.084 143.971 685.283 142.361 693.334 142.361C701.246 142.361 708.354 143.971 714.656 147.192C720.959 150.412 725.881 154.897 729.423 160.647C732.965 166.398 734.736 172.93 734.736 180.245ZM693.196 158.991C688.872 158.991 685.191 160.003 682.155 162.028C679.165 164.006 677.003 166.904 675.669 170.722H710.654C709.32 167.042 707.158 164.167 704.168 162.097C701.223 160.026 697.566 158.991 693.196 158.991Z" fill="#3B4D57"/>
<path d="M798.489 218.68C787.862 218.68 778.247 216.311 769.645 211.573C761.042 206.834 754.28 200.302 749.358 191.975C744.481 183.603 742.043 174.218 742.043 163.822C742.043 153.379 744.481 143.994 749.358 135.668C754.28 127.295 761.019 120.763 769.576 116.071C778.178 111.333 787.816 108.963 798.489 108.963C806.585 108.963 814.268 110.435 821.536 113.38C828.85 116.324 835.038 120.464 840.098 125.8L823.261 141.464C820.225 137.922 816.568 135.208 812.289 133.322C808.057 131.436 803.457 130.493 798.489 130.493C792.324 130.493 786.712 131.942 781.652 134.84C776.637 137.692 772.681 141.671 769.783 146.778C766.931 151.838 765.505 157.519 765.505 163.822C765.505 170.078 766.954 175.759 769.852 180.866C772.75 185.926 776.706 189.905 781.721 192.803C786.735 195.702 792.324 197.151 798.489 197.151C803.411 197.151 807.988 196.208 812.22 194.321C816.453 192.435 820.087 189.813 823.123 186.455L840.029 202.05C834.877 207.294 828.689 211.389 821.467 214.333C814.245 217.231 806.585 218.68 798.489 218.68Z" fill="#3B4D57"/>
<path d="M868.221 157.68C870.384 153.862 873.627 150.458 877.951 147.468C882.275 144.478 887.382 142.775 893.27 142.361V163.822C885.311 163.822 879.331 165.639 875.329 169.273C871.327 172.861 869.325 178.543 869.325 186.317V216.817H846.83V143.741H868.221V157.68Z" fill="#3B4D57"/>
<path d="M979.288 180.245C979.288 181.993 979.196 183.603 979.012 185.075H919.185C920.105 189.859 922.244 193.608 925.602 196.323C929.007 199.037 933.055 200.394 937.747 200.394C941.197 200.394 944.326 199.589 947.132 197.979C949.938 196.323 952.077 194.045 953.549 191.147L973.974 199.98C970.662 205.316 965.924 209.686 959.76 213.091C953.595 216.495 946.304 218.197 937.885 218.197C929.421 218.197 922.037 216.541 915.735 213.229C909.432 209.87 904.602 205.316 901.244 199.566C897.886 193.815 896.207 187.398 896.207 180.314C896.207 172.953 897.978 166.398 901.52 160.647C905.062 154.897 909.984 150.412 916.287 147.192C922.635 143.971 929.835 142.361 937.885 142.361C945.798 142.361 952.905 143.971 959.207 147.192C965.51 150.412 970.432 154.897 973.974 160.647C977.517 166.398 979.288 172.93 979.288 180.245ZM937.747 158.991C933.423 158.991 929.743 160.003 926.707 162.028C923.716 164.006 921.554 166.904 920.22 170.722H955.205C953.871 167.042 951.709 164.167 948.719 162.097C945.775 160.026 942.117 158.991 937.747 158.991Z" fill="#3B4D57"/>
<path d="M1022.04 218.197C1015.14 218.197 1008.86 216.541 1003.2 213.229C997.543 209.87 993.081 205.293 989.815 199.497C986.595 193.7 984.985 187.283 984.985 180.245C984.985 173.16 986.595 166.743 989.815 160.992C993.081 155.196 997.543 150.642 1003.2 147.33C1008.86 144.017 1015.14 142.361 1022.04 142.361C1026.36 142.361 1030.44 143.051 1034.25 144.431C1038.07 145.812 1041.45 147.79 1044.4 150.366V143.741H1066.96V216.817H1044.4V210.192C1041.5 212.815 1038.12 214.816 1034.25 216.196C1030.44 217.53 1026.36 218.197 1022.04 218.197ZM1026.53 199.359C1030.02 199.359 1033.22 198.554 1036.12 196.944C1039.01 195.334 1041.32 193.079 1043.02 190.181C1044.72 187.283 1045.57 183.971 1045.57 180.245C1045.57 176.564 1044.72 173.275 1043.02 170.377C1041.32 167.479 1039.01 165.225 1036.12 163.615C1033.22 162.005 1030.02 161.2 1026.53 161.2C1023.03 161.2 1019.83 162.005 1016.93 163.615C1014.04 165.179 1011.74 167.41 1010.03 170.308C1008.38 173.16 1007.55 176.472 1007.55 180.245C1007.55 184.017 1008.38 187.352 1010.03 190.25C1011.74 193.148 1014.04 195.403 1016.93 197.013C1019.83 198.577 1023.03 199.359 1026.53 199.359Z" fill="#3B4D57"/>
<path d="M1123.38 160.992H1107.51V188.87C1107.51 191.998 1108.26 194.321 1109.78 195.84C1111.3 197.358 1113.33 198.117 1115.86 198.117H1123.03V216.817H1109.71C1101.89 216.817 1095.82 214.77 1091.5 210.675C1087.17 206.535 1085.01 200.693 1085.01 193.148V160.992H1073.69V143.741H1085.01V123.523H1107.51V143.741H1123.38V160.992Z" fill="#3B4D57"/>
<path d="M1154.74 216.817H1132.25V143.741H1154.74V216.817ZM1143.63 134.357C1141.33 134.357 1139.22 133.805 1137.28 132.701C1135.35 131.597 1133.81 130.102 1132.66 128.216C1131.51 126.283 1130.94 124.167 1130.94 121.867C1130.94 119.613 1131.51 117.543 1132.66 115.657C1133.81 113.725 1135.35 112.207 1137.28 111.103C1139.22 109.998 1141.33 109.446 1143.63 109.446C1145.84 109.446 1147.89 109.998 1149.77 111.103C1151.71 112.207 1153.22 113.725 1154.33 115.657C1155.48 117.543 1156.05 119.613 1156.05 121.867C1156.05 124.121 1155.48 126.214 1154.33 128.147C1153.22 130.079 1151.71 131.597 1149.77 132.701C1147.89 133.805 1145.84 134.357 1143.63 134.357Z" fill="#3B4D57"/>
<path d="M1200.67 188.042L1216.61 143.741H1241.11L1210.26 216.817H1191.01L1160.37 143.741H1184.87L1200.67 188.042Z" fill="#3B4D57"/>
<path d="M1321.86 180.245C1321.86 181.993 1321.76 183.603 1321.58 185.075H1261.75C1262.67 189.859 1264.81 193.608 1268.17 196.323C1271.58 199.037 1275.62 200.394 1280.32 200.394C1283.77 200.394 1286.89 199.589 1289.7 197.979C1292.51 196.323 1294.65 194.045 1296.12 191.147L1316.54 199.98C1313.23 205.316 1308.49 209.686 1302.33 213.091C1296.16 216.495 1288.87 218.197 1280.45 218.197C1271.99 218.197 1264.61 216.541 1258.3 213.229C1252 209.87 1247.17 205.316 1243.81 199.566C1240.45 193.815 1238.78 187.398 1238.78 180.314C1238.78 172.953 1240.55 166.398 1244.09 160.647C1247.63 154.897 1252.55 150.412 1258.86 147.192C1265.2 143.971 1272.4 142.361 1280.45 142.361C1288.37 142.361 1295.47 143.971 1301.78 147.192C1308.08 150.412 1313 154.897 1316.54 160.647C1320.09 166.398 1321.86 172.93 1321.86 180.245ZM1280.32 158.991C1275.99 158.991 1272.31 160.003 1269.28 162.028C1266.29 164.006 1264.12 166.904 1262.79 170.722H1297.77C1296.44 167.042 1294.28 164.167 1291.29 162.097C1288.34 160.026 1284.69 158.991 1280.32 158.991Z" fill="#3B4D57"/>
<path fill-rule="evenodd" clip-rule="evenodd" d="M103.193 216.013C69.5549 182.374 69.5549 127.833 103.193 94.1929C136.831 60.5531 191.369 60.5531 225.007 94.1929C258.645 127.833 258.645 182.374 225.007 216.013C223.241 217.78 221.675 219.179 220.165 220.529C217.587 222.833 215.172 224.991 212.205 228.577C208.131 233.501 206.252 237.785 206.252 241.616V251.102L197.929 255.654C187.98 261.095 175.558 263.645 164.013 263.775C152.594 263.903 139.63 261.683 129.329 255.096L121.948 250.377V241.616C121.948 237.501 119.992 233.175 115.979 228.38C114.035 226.056 111.854 223.919 109.648 221.901C109.134 221.43 108.463 220.832 107.735 220.183C106.156 218.776 104.307 217.128 103.193 216.013ZM125.82 116.821C104.678 137.964 104.678 172.243 125.82 193.386C126.378 193.944 126.939 194.439 127.812 195.209C128.614 195.916 129.678 196.855 131.243 198.286C133.938 200.751 137.28 203.971 140.521 207.845C145.189 213.424 150.237 221.067 152.593 230.566C155.641 231.346 159.39 231.824 163.654 231.776C168.033 231.727 172.184 231.128 175.737 230.188C178.135 221.042 183.05 213.617 187.551 208.177C192.174 202.589 198.683 196.729 201.294 194.378C201.855 193.872 202.237 193.528 202.38 193.386C223.522 172.243 223.522 137.964 202.38 116.821C181.239 95.678 146.961 95.678 125.82 116.821Z" fill="#5EC231"/>
<path d="M0.468704 176.72L40.1571 176.72C39.7478 172.608 39.5383 168.438 39.5383 164.219C39.5383 160 39.7478 155.83 40.157 151.719H0.468527C0.158048 155.845 0 160.013 0 164.218C0 168.424 0.158108 172.593 0.468704 176.72Z" fill="#5EC231"/>
<path d="M39.5916 57.2729L67.6561 85.3389C72.9438 78.8735 78.868 72.9489 85.333 67.6609L57.2685 39.5948C50.939 45.0319 45.0283 50.9429 39.5916 57.2729Z" fill="#5EC231"/>
<path d="M151.711 0.468535V40.1591C155.822 39.7499 159.991 39.5404 164.21 39.5404C168.429 39.5404 172.599 39.75 176.71 40.1594V0.468748C172.584 0.158123 168.415 0 164.209 0C160.005 0 155.837 0.15805 151.711 0.468535Z" fill="#5EC231"/>
<path d="M271.15 39.5949L243.086 67.6607C249.551 72.9488 255.475 78.8733 260.763 85.3388L288.827 57.2729C283.391 50.943 277.48 45.0319 271.15 39.5949Z" fill="#5EC231"/>
<path d="M327.95 151.719H288.262C288.671 155.83 288.881 160 288.881 164.219C288.881 168.438 288.671 172.608 288.262 176.72L327.95 176.72C328.261 172.593 328.419 168.424 328.419 164.218C328.419 160.013 328.261 155.845 327.95 151.719Z" fill="#5EC231"/>
<path d="M274.822 237.15C251.065 272.793 210.393 296.291 164.209 296.291C118.188 296.291 77.6401 272.958 53.848 237.525L23.6247 250.115C52.6444 297.094 104.753 328.419 164.209 328.419C223.827 328.419 276.057 296.924 305.029 249.733L274.822 237.15Z" fill="#5EC231"/>
</g>
<defs>
<clipPath id="clip0">
<rect width="1343" height="328.419" fill="white"/>
</clipPath>
</defs>
</svg>
