<?xml version="1.0" encoding="utf-8"?>
<!-- Generator: Adobe Illustrator 24.2.3, SVG Export Plug-In . SVG Version: 6.00 Build 0)  -->
<svg version="1.1" id="Layer_1" xmlns="http://www.w3.org/2000/svg" xmlns:xlink="http://www.w3.org/1999/xlink" x="0px" y="0px"
	 viewBox="0 0 603 628" style="enable-background:new 0 0 603 628;" xml:space="preserve">
<style type="text/css">
	.st0{fill:#E6F2F4;}
	.st1{fill:none;stroke:#96C8D2;stroke-width:2.1548;}
	.st2{fill:#C7E1E6;}
	.st3{fill:#99C9D3;}
	.st4{fill:none;stroke:#99C9D3;stroke-width:3.2322;}
	.st5{opacity:0.4;fill:#99C9D3;enable-background:new    ;}
	.st6{fill-rule:evenodd;clip-rule:evenodd;fill:#99C9D3;}
	.st7{fill:none;stroke:#99C9D3;stroke-width:2.1548;stroke-linecap:round;stroke-linejoin:round;}
</style>
<g>
	<g>
		<path class="st0" d="M437.8,541.2v69.7l-11.6,8.6c-38.7-19.4-127.9-44-225.3-33.5c-21.1,2.3-40.1,4.5-57.3,6.5
			c-57.1,6.7-95.4,11.1-132,8.6l-7.3-11.7L43.5,90c66.2,10.8,88,7.2,116.1-1l4.6-54.2c79-49.4,156.4-19.5,234,10.5
			c47.9,18.5,96,37.1,144.6,37.1v482.9l-10.7,7.5C499.1,559.9,467.6,549.5,437.8,541.2z"/>
	</g>
	<path class="st0" d="M437.8,100.2v510.7l-11.6,8.6c-38.7-19.4-127.9-44-225.3-33.5c-91.1,9.8-141.7,18.4-189.4,15.1l-7.3-11.7
		L43.5,90c114.8,18.8,96-5.9,208.2-22.5C341.3,54.1,413.1,83.7,437.8,100.2z"/>
	<path class="st1" d="M437.8,610.9V100.2c-24.7-16.5-96.5-46-186.2-32.7C139.5,84.1,158.3,108.7,43.5,90L4.3,589.4 M437.8,610.9
		C394.2,590.1,297.2,560,172.6,578c-65.1,9.4-157.2,16.1-168.3,11.5 M437.8,610.9l-11.6,8.6c-38.7-19.4-127.9-44-225.3-33.5
		c-91.1,9.8-141.7,18.4-189.4,15.1l-7.3-11.7"/>
	<path class="st2" d="M119.2,584.2c-47.5,5.9-95.8,6.5-114,6c0,1,1.2,4.5,6.2,10.6c13.8,4,67.8-0.7,149.5-10.6
		c81.7-9.9,116.7-7.3,166.7,0c40,5.8,82.2,22,98.4,29.3c1.9-1.3,6.9-4.9,11.2-8.3c-57.6-28.6-135.6-38.2-181.6-38.6
		C209.5,572.2,178.6,576.8,119.2,584.2z"/>
	<path class="st3" d="M67.7,175.7l-1.9,19.5c50.7,8.3,75.8,8.2,97.5,4l1.2-19.6C143.2,183.8,118.5,184,67.7,175.7z"/>
	<path class="st3" d="M64.4,222.5L62.6,242c50.7,8.3,75.8,8.2,97.5,4l1.2-19.6C139.9,230.6,115.2,230.8,64.4,222.5z"/>
	<path class="st3" d="M61.1,269.4l-1.9,19.5c50.7,8.3,75.8,8.2,97.5,4l1.2-19.6C136.6,277.5,111.9,277.7,61.1,269.4z"/>
	<path class="st3" d="M57.8,320.8L56,340.2c50.7,8.3,75.8,8.2,97.5,4l1.2-19.6C133.3,328.9,108.6,329.1,57.8,320.8z"/>
	<path class="st3" d="M53.1,374.6l-1.9,19.5c50.7,8.3,75.8,8.2,97.5,4l1.2-19.6C128.6,382.7,103.9,382.9,53.1,374.6z"/>
	<path class="st3" d="M48.4,436l-1.9,19.5c50.7,8.3,75.8,8.2,97.5,4l1.2-19.6C123.8,444.1,99.2,444.3,48.4,436z"/>
	<path class="st1" d="M437.8,610.9V100.2c-24.7-16.5-96.5-46-186.2-32.7C139.5,84.1,158.3,108.7,43.5,90L4.3,589.4 M437.8,610.9
		C394.2,590.1,297.2,560,172.6,578c-65.1,9.4-157.2,16.1-168.3,11.5 M437.8,610.9l-11.6,8.6c-38.7-19.4-127.9-44-225.3-33.5
		c-91.1,9.8-141.7,18.4-189.4,15.1l-7.3-11.7"/>
	<path class="st0" d="M123.8,514l40.3-479.3C291.9-45,415.3,82.4,542.7,82.4v482.9l-10.7,7.5c-207.3-81.2-356.6-62.1-398.1-49.6
		L123.8,514z"/>
	<path class="st1" d="M123.8,514l40.3-479.3C291.9-45,415.3,82.4,542.7,82.4v482.9 M123.8,514c162.2-38.6,334.4,20.1,419,51.2
		 M123.8,514l10.1,9.1c41.5-12.5,190.8-31.6,398.1,49.6l10.7-7.5"/>
	<path class="st4" d="M158,452.1c9.8-2.6,28.5-10.8,24.4-22.4c-5.1-14.5-21.7,33.5,2.5,21.1c10.4-5.3,21.1-22.9,22.7-21.1
		c1.5,1.8-4.1,14,7.1,8.7c11.2-5.3,14.3-17.1,19.6-12.2c5.3,4.8,8.1,11.5,14.8,8.7c6.6-2.8,6.2-14,13.7-14c10.7,0-6.9,22.7,10.7,14
		c17.6-8.7,29-12.2,30-3.6c1,8.7,10.4,15.3,20.4,14.3c9.9-1,30.8-12.7,27.2-14.3c-3.6-1.5-26,21.1-3.8,19.6
		c22.1-1.5,24.9-3.6,26,1.3c1,4.8-6.7,11.9,8.8,5.3c15.5-6.6,13.3,5.1,26.8,13.3c13.5,8.1,18.6,5.6,24.9,5.3"/>
	<path class="st2" d="M531.7,573.1l11.1-7.7c-46.7-18.6-164.9-55-252.1-61.7c-85.2-6.5-146.3,3.5-166.3,10.4l10.6,9.3
		C280.4,488.5,460.1,542,531.7,573.1z"/>
	<path class="st3" d="M184.6,127.6l-3.1,37.1c27.1-12.1,54.1-15.7,81-14.1l3.2-37.9C238.8,111.2,211.8,115.1,184.6,127.6z"/>
	<path class="st3" d="M296.4,155.2l1.6-38.4c22.6,4.4,45.2,11.8,67.7,20l-0.6,39.3C341.7,167.5,319.8,160,296.4,155.2z"/>
	<path class="st3" d="M406.3,192v-39.6c25,9.6,50.1,19,75.2,25.4v39C456.4,210.7,431.3,201.5,406.3,192z"/>
	<path class="st1" d="M123.8,514l40.3-479.3C291.9-45,415.3,82.4,542.7,82.4v482.9 M123.8,514c162.2-38.6,334.4,20.1,419,51.2
		 M123.8,514l10.1,9.1c41.5-12.5,190.8-31.6,398.1,49.6l10.7-7.5"/>
	<path class="st3" d="M175.5,217l-3.6,46c34.3-13.7,68.4-14.1,102.3-7.8l3.2-47.8C243.6,201.5,209.7,202.6,175.5,217z"/>
	<path class="st3" d="M314.5,213.9l-1.4,49c39.9,10,69.1,27.2,93.5,36.2v-49.7C382.6,240.5,356.9,225.1,314.5,213.9z"/>
	<path class="st3" d="M164.6,358.4l4-49c19.5-8.6,38.8-12.7,58.2-13.7l-3.1,47.4C204,344.4,184.4,349.1,164.6,358.4z"/>
	<path class="st3" d="M257.6,295.6l-3.5,47.4c28.2,2.7,57.9,11.5,85.9,21.6l1.2-46.8C314.4,308.2,284.7,298.9,257.6,295.6z"/>
	<path class="st3" d="M406.4,85c-75.1-29.3-103.7-36.8-129-38.8l-1.6,28.1c47.3,4.1,104,29,130.6,38.9V85z"/>
	<path class="st4" d="M161.9,418.2c7.5-2,57.2-49.3,44.8-35.1c-18.7,21.5,1,21.3,10.2,21.3c27.4,0,47.1-22.6,33.1-22.6
		c-13.9,0,0,45.9,39.3,0c-11.3,9.8-8,23.7,22.1,18.2c37.5-6.9,6,3.1,22.5,4.5c16.5,1.4,47.2-9.9,37.4,0c-9.8,9.9,0.4,16.8,17.9,10.2
		c17.5-6.6,23.7,9.1,23.7,9.1s7.5,20.7,39.5,18.7"/>
	<path class="st0" d="M598.7,237.7v152.2l-7.2,4.9c-13.3-9.4-49.8-31-89.9-42.4V208.6l9-7.9C553.3,203.8,587.1,226.6,598.7,237.7z"
		/>
	<path class="st5" d="M510.5,345V201.2l-9.5,7.4v134.5c0.1,1,0.5,4.3,1,9.6c27.9,5.4,71.1,30.4,89.2,42.3c1.3-0.9,4.5-3,7.4-4.9
		C574.9,369.8,530,351.6,510.5,345z"/>
	<path class="st3" d="M523.5,213.8c16.8,3.5,31.6,9.7,43.5,16.2v10.4c-11.9-6.5-26.7-12.7-43.5-16.2V213.8z"/>
	<path class="st3" d="M523.5,238.7v5.8c13.5,2.9,36.5,13.4,61.4,29.7v-6.8C560.4,251.7,537.5,241.3,523.5,238.7z"/>
	<path class="st3" d="M523.5,253.8v5.8c9.6,2,24,7.9,40.6,17.1v-6.5C547.9,261.5,533.5,255.7,523.5,253.8z"/>
	<path class="st3" d="M523.5,275.9v-5.8c11.8,2.2,30,10,50.1,21.8v6.6C553.1,286.2,535,278.3,523.5,275.9z"/>
	<path class="st3" d="M566,304.6c-17-9.4-32.2-15.5-42.5-17.5v5.8c10,2.1,25.1,8.4,42.5,18.2V304.6z"/>
	<path class="st3" d="M523.5,312.5v-5.8c7.6,1.4,17.7,5.1,29.3,10.7v6.3C541,317.8,530.9,314,523.5,312.5z"/>
	<path class="st3" d="M523.5,325.6v5.8c10.9,2.3,27.9,9.6,47.2,20.9v-6.6C551.8,334.9,534.8,327.7,523.5,325.6z"/>
	<path class="st6" d="M208,79.3c-6.5-5.6-6.2-16.6,0.6-24.6c6.8-8,17.7-10,24.2-4.5c6.5,5.6,6.2,16.6-0.6,24.6
		c-0.4,0.4-0.7,0.8-1,1.1c-0.5,0.6-1,1.1-1.6,1.9c-0.8,1.1-1.2,2.1-1.2,2.9l0,1.9l-1.7,1.2c-2,1.5-4.5,2.4-6.8,2.9
		c-2.3,0.4-4.8,0.5-6.8-0.5l-1.4-0.7l0-1.8c0-0.8-0.3-1.6-1.1-2.5c-0.4-0.4-0.8-0.7-1.2-1.1c-0.1-0.1-0.2-0.2-0.4-0.3
		C208.6,79.7,208.2,79.4,208,79.3z M213,58.4c-4.3,5-4.5,12-0.4,15.5c0.1,0.1,0.2,0.2,0.4,0.3c0.2,0.1,0.4,0.3,0.7,0.5
		c0.5,0.4,1.2,0.9,1.8,1.6c0.9,1,1.9,2.3,2.3,4.1c0.6,0,1.3,0,2.2-0.2c0.9-0.2,1.7-0.4,2.4-0.8c0.5-1.9,1.5-3.6,2.5-4.9
		c0.9-1.3,2.3-2.7,2.8-3.3c0.1-0.1,0.2-0.2,0.2-0.2c4.3-5,4.5-12,0.4-15.5C224.1,52.1,217.3,53.4,213,58.4z"/>
	<path class="st3" d="M187.8,75.1l7.9-1.5c-0.1-0.8-0.1-1.6-0.1-2.5c0-0.9,0.1-1.7,0.2-2.5l-7.9,1.5c-0.1,0.8-0.1,1.7-0.2,2.5
		C187.7,73.4,187.8,74.3,187.8,75.1z"/>
	<path class="st3" d="M196.2,49.6l5.4,4.6c1.1-1.5,2.3-2.9,3.6-4.2l-5.4-4.6C198.5,46.7,197.3,48.1,196.2,49.6z"/>
	<path class="st3" d="M218.7,34l-0.2,8c0.8-0.2,1.6-0.4,2.5-0.6c0.8-0.2,1.7-0.3,2.5-0.3l0.2-8c-0.8,0.1-1.6,0.2-2.5,0.4
		C220.4,33.6,219.5,33.8,218.7,34z"/>
	<path class="st3" d="M242.2,37.5l-5.7,6.7c1.3,0.8,2.4,1.8,3.4,2.9l5.7-6.7C244.6,39.3,243.5,38.3,242.2,37.5z"/>
	<path class="st3" d="M252.9,58l-7.9,1.5c0.1,0.8,0.1,1.6,0.1,2.5c0,0.9-0.1,1.7-0.2,2.5l7.9-1.5c0.1-0.8,0.1-1.7,0.2-2.5
		C253,59.7,253,58.8,252.9,58z"/>
	<path class="st3" d="M241.9,77.2c-4.9,8.1-13.1,14.3-22.3,16c-9.1,1.7-17.1-1.5-21.6-7.8l-6.1,3.7c5.5,8.4,15.7,12.8,27.5,10.6
		c11.8-2.2,22.4-10.5,28.4-21.1L241.9,77.2z"/>
	<path class="st7" d="M201.9,263.6l-2.7,30.3 M201.9,263.6l-7.2,6.6 M201.9,263.6l6.3,6.6"/>
	<path class="st7" d="M213.4,166.6l-2.7,30.3 M213.4,166.6l-7.2,6.6 M213.4,166.6l6.3,6.6"/>
	<path class="st7" d="M344.5,209.5v-32.1 M344.5,209.5l6-4.7 M344.5,209.5l-7.3-9.1"/>
	<path class="st7" d="M353,342.8c14.3,4.9,47.4,15.5,65,18.6c3.5,0.6,6.7,1.2,9.6,1.6c10.4,1.7,19.2-6.3,19.2-16.8V225 M446.8,225
		l-5.4,4.8 M446.8,225l5.4,7.5"/>
	<path class="st7" d="M264.1,228.5c11.7-1.5,41.6,2.6,74.2,17.9"/>
	<path class="st7" d="M461.3,230.6l1.5,113.7c0.3,21-16.3,37.8-37,34.2c-20-3.5-45.6-10.1-74-21.7 M351.7,356.8l7.8-2.5
		 M351.7,356.8l7.8,8.6"/>
	<path class="st1" d="M598.7,389.9V237.7c-11.6-11-45.4-33.9-88.1-37 M598.7,389.9c-36.1-26.7-73.8-40.8-88.1-44.6 M598.7,389.9
		l-7.2,4.9c-13.3-9.4-49.8-31-89.9-42.4 M510.6,200.7v144.7 M510.6,200.7l-9,7.9v143.9 M510.6,345.3c-3,2.4-9,7.1-9,7.1"/>
</g>
</svg>
