<svg width="721" height="601" viewBox="0 0 721 601" fill="none" xmlns="http://www.w3.org/2000/svg">
<path d="M301.514 390.016L300.973 355.622L255.864 381.733C239.656 364.986 193.918 362.645 173.929 379.932C157.939 393.762 164.926 407.004 170.418 411.896L172.399 412.706C175.01 410.335 184.464 404.747 201.391 401.361C218.319 397.976 234.915 402.172 241.097 404.693C242.358 404.273 247.076 403.018 255.864 401.361C264.651 399.705 276.993 400.671 282.065 401.361L301.514 390.016Z" fill="#BFE7AD"/>
<path d="M283.09 345.117V305.479C276.833 320.023 261.245 325.562 254.233 326.513L253.07 327.465L283.09 345.117Z" fill="#BFE7AD"/>
<path d="M140.854 446.144V480.503L9.64583 404.163C6.97638 402.484 1.53415 396.413 1.12081 385.563C0.712773 374.852 0.942492 362.337 1.11414 357.212C1.11526 357.145 1.1175 357.08 1.12081 357.016C1.1186 357.08 1.11637 357.146 1.11414 357.212C1.05666 360.651 3.91379 368.798 15.9749 375.487C28.272 382.308 104.352 425.433 140.854 446.144Z" fill="#BFE7AD"/>
<path d="M317.762 247.553C348.415 261.985 332.913 281.519 322.201 287.826C299.624 277.171 278.969 279.863 271.464 282.541C269.808 281.273 263.113 277.869 249.583 274.402C236.053 270.935 222.241 273.31 217.027 274.931L201.383 264.678V230.641L248.844 256.855V255.904C259.625 246.003 290.596 234.764 317.762 247.553Z" fill="#BFE7AD"/>
<path d="M500.025 325.71V284.664C495.633 301.122 472.711 307.039 461.604 308.089C432.726 310.715 416.149 299.221 411.471 293.145V327.88C417.044 337.655 432.406 342.69 439.39 343.986C447.383 339.392 464.724 329.405 470.136 326.214C475.286 334.393 483.818 337.776 485.737 338.584C493.694 335.151 498.578 328.57 500.025 325.71Z" fill="#BFE7AD"/>
<path d="M534.724 455.961V421.86C527.879 431.677 516.253 438.394 492.873 438.394C450.091 437.98 437.674 419.363 436.812 410.105V440.202C440.3 457.64 457.738 463.195 462.13 465.003C467.607 463.556 474.746 455.961 477.631 452.344L505.273 468.103H507.469C518.94 466.966 530.419 459.535 534.724 455.961Z" fill="#BFE7AD"/>
<path d="M186.087 421.048L140.855 445.992V480.529L186.087 455.346V421.048Z" fill="#BFE7AD"/>
<path d="M186.087 421.048L140.855 445.992M186.087 421.048V455.346L140.855 480.529M186.087 421.048C183.576 420.058 180.005 418.902 177.775 417.615C158.422 406.442 159.662 387.801 179.016 376.628C198.37 365.455 229.749 365.455 249.102 376.628C251.772 378.169 254.123 380.126 255.658 381.935M140.855 445.992V480.529M140.855 445.992L11.2388 372.398C-1.95374 364.907 -2.02627 345.922 11.1086 338.331L140.855 263.345L189.049 290.852C191.432 287.375 194.868 283.994 199.739 281.182C218.814 270.17 249.741 270.17 268.817 281.182C278.554 286.803 283.32 294.019 283.117 301.385M140.855 480.529L12.1442 405.611C5.52906 401.76 1.4598 394.683 1.4598 387.029V358.074M301.413 355.478L255.658 381.935M301.413 355.478V390.339L281.809 401.476M301.413 355.478L252.4 327.25C258.312 325.874 264.024 323.827 268.817 321.061C278.155 315.67 282.922 308.45 283.117 301.385M255.658 381.935V400.922M171.914 413.489C173.69 411.851 176.732 409.729 179.016 408.411C195.872 398.68 221.848 397.424 241.059 404.643M283.117 301.385V344.968" stroke="#7ECE5A" stroke-width="1.86959"/>
<path d="M465.013 381.935L419.258 355.478V390.339L438.473 401.177C440.66 396.2 445.126 391.487 451.873 387.592C454.396 386.253 461.323 383.631 468.848 383.865L465.013 381.935Z" fill="#BFE7AD"/>
<path d="M529.456 322.97C535.584 324.269 541.762 326.428 546.681 329.267C548.601 330.376 550.318 331.557 551.832 332.797C564.609 322.336 562.892 307.778 546.681 298.419C541.762 295.579 535.584 293.42 529.456 292.121L529.456 322.97Z" fill="#BFE7AD"/>
<path d="M579.816 445.992V480.529L709.455 405.07C715.495 401.554 719.584 394.849 719.584 387.86L719.365 355.717C719.251 362.257 715.938 368.704 709.432 372.398L579.816 445.992Z" fill="#BFE7AD"/>
<path d="M579.816 445.992L534.583 421.048V455.346L579.816 480.529V445.992Z" fill="#BFE7AD"/>
<path d="M534.583 421.048L579.816 445.992M534.583 421.048V455.346M534.583 421.048C521.729 445.573 470.663 440.175 451.873 429.327C442.586 423.966 437.62 417.055 436.973 410.036M579.816 445.992V480.529M579.816 445.992L709.432 372.398C715.938 368.704 719.251 362.257 719.365 355.717M579.816 480.529L534.583 455.346M579.816 480.529L709.455 405.07C715.495 401.554 719.584 394.849 719.584 387.86L719.365 355.717M534.583 455.346C534.583 455.346 532.144 458.183 524.166 462.788C519.208 465.65 512.94 467.642 506.44 468.782M419.258 355.478L465.013 381.935L468.848 383.865C461.323 383.631 454.396 386.253 451.873 387.592M419.258 355.478V390.339L438.473 401.177C440.66 396.2 445.126 391.487 451.873 387.592M419.258 355.478L470.013 326.225C472.26 329.791 476.063 333.465 481.019 336.326C499.151 346.793 528.549 346.793 546.681 336.326C548.601 335.217 550.318 334.036 551.832 332.797M719.365 355.717C719.482 348.996 716.22 342.178 709.562 338.331L579.816 263.345L529.456 292.121M529.456 292.121C535.584 293.42 541.762 295.579 546.681 298.419C562.892 307.778 564.609 322.336 551.832 332.797M529.456 292.121L529.456 322.97C535.584 324.269 541.762 326.428 546.681 329.267C548.601 330.376 550.318 331.557 551.832 332.797M451.873 387.592C441.197 393.756 436.23 401.967 436.973 410.036M436.973 410.036V440.134C437.252 444.162 440.623 453.81 451.873 460.175C455.039 462.003 458.547 463.589 462.284 464.921" stroke="#7ECE5A" stroke-width="1.86959"/>
<path d="M411.382 292.907L360.962 321.888V356.229L411.382 327.843V292.907Z" fill="#BFE7AD"/>
<path d="M360.962 356.229V321.888L310.345 292.907V325.858L360.962 356.229Z" fill="#BFE7AD"/>
<path d="M522.146 266.308V230.181L472.64 257.167C477.658 258.464 482.36 260.302 486.48 262.681C494.807 267.488 499.31 273.668 499.988 279.959L522.146 266.308Z" fill="#BFE7AD"/>
<path d="M322.319 287.883C340.451 277.416 340.451 260.444 322.319 249.976C304.187 239.509 274.789 239.509 256.657 249.976C253.247 251.945 250.54 254.24 248.413 256.581M322.319 287.883C319.965 289.169 314.275 291.975 310.345 292.907M322.319 287.883C308.245 279.758 287.384 277.63 270.272 281.979M360.962 321.888L411.382 292.907M360.962 321.888V356.229M360.962 321.888L310.345 292.907M411.382 292.907V327.843M411.382 292.907C413.616 295.699 416.83 298.286 420.817 300.587C438.95 311.055 468.347 311.055 486.48 300.587C496.284 294.927 500.787 287.366 499.988 279.959M360.962 356.229L411.382 327.843M360.962 356.229L310.345 325.858V292.907M411.382 327.843C413.632 331.379 417.288 334.82 422.204 337.659C427.201 340.543 433.052 342.633 439.288 343.927M248.413 256.581V273.851M248.413 256.581L200.971 230.181M200.971 230.181V264.521L217.645 275.042M200.971 230.181L337.146 152.549M522.146 230.181V266.308L499.988 279.959M522.146 230.181L472.64 257.167C477.658 258.464 482.36 260.302 486.48 262.681C494.807 267.488 499.31 273.668 499.988 279.959M522.146 230.181L401.481 162.73M499.988 279.959L499.914 325.594C497.886 330.014 493.87 334.193 487.867 337.659C487.233 338.024 486.586 338.377 485.927 338.717" stroke="#7ECE5A" stroke-width="1.86959"/>
<path d="M197.471 515.59L326.959 589.805C348.863 602.359 375.825 602.167 397.547 589.302L524.732 513.979V479.392L397.547 554.715C375.825 567.58 348.863 567.772 326.959 555.218L197.471 481.002V515.59Z" fill="#BFE7AD"/>
<path d="M396.193 451.574C401.859 448.303 408.569 446.004 415.705 444.676L415.704 416.652C408.569 417.98 401.858 420.26 396.193 423.53C380.25 432.734 377.632 446.718 388.339 457.492C390.443 455.375 393.061 453.382 396.193 451.574Z" fill="#BFE7AD"/>
<path d="M218.982 429.525L218.942 462.845C218.927 464.769 219.428 466.583 220.091 468.476L246.9 453.661C242.61 452.631 236.012 449.674 233.248 448.324C231.787 447.48 230.437 446.596 229.2 445.678C222.664 440.831 219.271 435.363 218.982 429.525Z" fill="#BFE7AD"/>
<path d="M218.982 429.525L218.942 462.845C218.927 464.769 219.428 466.583 220.091 468.476M218.982 429.525C219.271 435.363 222.664 440.831 229.2 445.678C230.437 446.596 231.787 447.48 233.248 448.324C236.012 449.674 242.61 452.631 246.9 453.661L220.091 468.476M218.982 429.525C218.61 422.04 223.353 414.158 233.248 408.445C252.324 397.433 283.251 397.433 302.326 408.445C306.48 410.843 309.73 413.566 312.074 416.471L363.976 386.856L415.704 416.652M415.704 416.652L415.705 444.676C408.569 446.004 401.859 448.303 396.193 451.574C393.061 453.382 390.443 455.375 388.339 457.492M415.704 416.652C408.569 417.98 401.858 420.26 396.193 423.53C380.25 432.734 377.632 446.718 388.339 457.492M197.471 481.002V515.59L326.959 589.805C348.863 602.359 375.825 602.167 397.547 589.302L524.732 513.979V479.392M197.471 481.002L326.959 555.218C348.863 567.772 375.825 567.58 397.547 554.715L524.732 479.392M197.471 481.002L220.091 468.476M524.732 479.392L477.262 452.067C474.969 456.215 470.972 460.118 465.271 463.409C446.196 474.421 415.268 474.421 396.193 463.409C393.061 461.601 390.443 459.608 388.339 457.492" stroke="#7ECE5A" stroke-width="1.86959"/>
<path d="M642.569 285.019L669.669 300.665L642.569 316.31L615.469 300.665L642.569 285.019Z" fill="#AFE198"/>
<path d="M642.568 316.313L669.669 300.665L669.667 331.959L642.569 347.606L642.568 316.313Z" fill="#AFE198"/>
<path d="M642.57 316.313L615.469 300.665L615.471 331.959L642.569 347.606L642.57 316.313Z" fill="#AFE198"/>
<path d="M669.669 300.665L642.569 285.019L615.469 300.665M669.669 300.665L642.569 316.31L615.469 300.665M669.669 300.665L642.568 316.313L642.569 347.606M669.669 300.665L669.667 331.959L642.569 347.606M615.469 300.665L642.57 316.313L642.569 347.606M615.469 300.665L615.471 331.959L642.569 347.606" stroke="#7ECE5A" stroke-width="1.86959"/>
<path d="M597.485 310.782L624.585 326.428L597.485 342.073L570.385 326.428L597.485 310.782Z" fill="#AFE198"/>
<path d="M597.484 342.076L624.585 326.428L624.583 357.722L597.485 373.37L597.484 342.076Z" fill="#AFE198"/>
<path d="M597.486 342.076L570.385 326.428L570.387 357.722L597.485 373.37L597.486 342.076Z" fill="#AFE198"/>
<path d="M624.585 326.428L597.485 310.782L570.385 326.428M624.585 326.428L597.485 342.073L570.385 326.428M624.585 326.428L597.484 342.077L597.485 373.37M624.585 326.428L624.583 357.722L597.485 373.37M570.385 326.428L597.486 342.077L597.485 373.37M570.385 326.428L570.387 357.722L597.485 373.37" stroke="#7ECE5A" stroke-width="1.86959"/>
<path d="M642.569 253.725L669.669 269.371L642.569 285.016L615.469 269.371L642.569 253.725Z" fill="#CFEDC2"/>
<path d="M642.568 285.02L669.669 269.371L669.667 300.665L642.569 316.313L642.568 285.02Z" fill="#CFEDC2"/>
<path d="M642.57 285.02L615.469 269.371L615.471 300.665L642.569 316.313L642.57 285.02Z" fill="#CFEDC2"/>
<path d="M669.669 269.371L642.569 253.725L615.469 269.371M669.669 269.371L642.569 285.016L615.469 269.371M669.669 269.371L642.568 285.02L642.569 316.313M669.669 269.371L669.667 300.665L642.569 316.313M615.469 269.371L642.57 285.02L642.569 316.313M615.469 269.371L615.471 300.665L642.569 316.313" stroke="#7ECE5A" stroke-width="1.86959"/>
<path d="M642.569 222.432L669.669 238.078L642.569 253.723L615.469 238.078L642.569 222.432Z" fill="#EFF9EB"/>
<path d="M642.568 253.726L669.669 238.078L669.667 269.372L642.569 285.019L642.568 253.726Z" fill="#EFF9EB"/>
<path d="M642.57 253.726L615.469 238.078L615.471 269.372L642.569 285.019L642.57 253.726Z" fill="#EFF9EB"/>
<path d="M669.669 238.078L642.569 222.432L615.469 238.078M669.669 238.078L642.569 253.723L615.469 238.078M669.669 238.078L642.568 253.726L642.569 285.019M669.669 238.078L669.667 269.372L642.569 285.019M615.469 238.078L642.57 253.726L642.569 285.019M615.469 238.078L615.471 269.372L642.569 285.019" stroke="#7ECE5A" stroke-width="1.86959"/>
<path d="M551.831 337.871L578.931 353.517L551.831 369.162L524.73 353.517L551.831 337.871Z" fill="#CFEDC2"/>
<path d="M551.83 369.165L578.931 353.517L578.929 384.81L551.831 400.458L551.83 369.165Z" fill="#CFEDC2"/>
<path d="M551.831 369.165L524.73 353.517L524.732 384.81L551.831 400.458L551.831 369.165Z" fill="#CFEDC2"/>
<path d="M578.931 353.517L551.831 337.871L524.73 353.517M578.931 353.517L551.831 369.162L524.73 353.517M578.931 353.517L551.83 369.165L551.831 400.458M578.931 353.517L578.929 384.81L551.831 400.458M524.73 353.517L551.831 369.165L551.831 400.458M524.73 353.517L524.732 384.81L551.831 400.458" stroke="#7ECE5A" stroke-width="1.86959"/>
<path d="M597.485 279.488L624.585 295.134L597.485 310.779L570.385 295.134L597.485 279.488Z" fill="#CFEDC2"/>
<path d="M597.484 310.782L624.585 295.134L624.583 326.428L597.485 342.075L597.484 310.782Z" fill="#CFEDC2"/>
<path d="M597.486 310.782L570.385 295.134L570.387 326.428L597.485 342.075L597.486 310.782Z" fill="#CFEDC2"/>
<path d="M624.585 295.134L597.485 279.488L570.385 295.134M624.585 295.134L597.485 310.779L570.385 295.134M624.585 295.134L597.484 310.782L597.485 342.075M624.585 295.134L624.583 326.428L597.485 342.075M570.385 295.134L597.486 310.782L597.485 342.075M570.385 295.134L570.387 326.428L597.485 342.075" stroke="#7ECE5A" stroke-width="1.86959"/>
<g filter="url(#filter0_f)">
<path fill-rule="evenodd" clip-rule="evenodd" d="M301.881 540.95C328.226 556.159 370.938 556.159 397.282 540.95C423.627 525.741 423.627 501.083 397.282 485.875C370.938 470.666 328.226 470.666 301.881 485.875C275.537 501.083 275.537 525.741 301.881 540.95ZM315.654 532.999C334.392 543.816 364.772 543.816 383.51 532.999C402.248 522.182 402.248 504.643 383.51 493.826C364.772 483.008 334.392 483.008 315.654 493.826C296.916 504.643 296.916 522.182 315.654 532.999Z" fill="#9EDA83"/>
</g>
<path fill-rule="evenodd" clip-rule="evenodd" d="M299.293 502.04C327.067 518.074 372.098 518.074 399.872 502.04C413.292 494.292 420.228 484.218 420.678 474.067H420.702V473.161C420.702 473.059 420.702 472.957 420.702 472.854V449.281H407.637C405.349 447.419 402.761 430.309 399.872 428.641C372.098 412.607 327.067 412.607 299.293 428.641C296.403 430.309 293.813 447.421 291.524 449.284H278.503V471.622C277.866 482.587 284.796 493.67 299.293 502.04ZM320.177 479.633C339.931 491.037 363.566 492.326 383.321 480.921C387.713 478.386 391.436 477.433 394.252 476.713C398.663 475.584 400.845 475.026 399.872 469.843C398.673 463.456 393.833 457.254 385.352 452.358C365.597 440.954 333.568 440.954 313.813 452.358C305.768 457.002 301 462.822 299.507 468.859C298.248 473.954 301.46 474.49 306.665 475.359C310.437 475.988 315.256 476.792 320.177 479.633Z" fill="#CFEDC2" stroke="#7ECE5A" stroke-width="1.86959"/>
<path d="M403.446 499.82V463.927H397.67C398.761 465.858 399.495 467.841 399.871 469.843C400.843 475.026 398.662 475.584 394.25 476.713C391.435 477.433 387.712 478.386 383.32 480.921C363.565 492.326 339.93 491.037 320.175 479.633C319.847 479.443 319.519 479.262 319.191 479.09V510.14C345.578 517.337 378.05 514.637 399.871 502.04C401.118 501.319 402.31 500.579 403.446 499.82Z" fill="#9EDA83" stroke="#7ECE5A" stroke-width="1.86959"/>
<path d="M319.192 510.14C311.993 508.177 305.247 505.477 299.293 502.04C284.796 493.67 277.866 482.587 278.503 471.622V449.284H291.524L299.507 468.859C298.248 473.954 301.46 474.49 306.665 475.359C310.185 475.946 314.617 476.685 319.192 479.09V510.14Z" fill="#7ECE5A" stroke="#7ECE5A" stroke-width="1.86959"/>
<path fill-rule="evenodd" clip-rule="evenodd" d="M299.293 477.797C327.067 493.831 372.098 493.831 399.872 477.797C427.645 461.763 427.645 435.767 399.872 419.733C372.098 403.699 327.067 403.699 299.293 419.733C271.519 435.767 271.519 461.763 299.293 477.797ZM313.813 469.414C333.568 480.819 365.597 480.819 385.352 469.414C405.106 458.01 405.106 439.52 385.352 428.115C365.597 416.711 333.568 416.711 313.813 428.115C294.059 439.52 294.059 458.01 313.813 469.414Z" fill="#F8FAF9" stroke="#7ECE5A" stroke-width="1.86959"/>
<path d="M316.129 412.521C310.077 414.384 304.394 416.788 299.293 419.733C271.519 435.767 271.519 461.763 299.293 477.797C309.757 483.837 322.67 487.602 336.187 489.091C337.797 484.987 339.34 481.04 340.714 477.518C330.861 476.51 321.426 473.809 313.813 469.414C294.059 458.01 294.059 439.52 313.813 428.115C316.967 426.295 320.433 424.765 324.111 423.526L316.129 412.521Z" fill="#BFE7AD"/>
<path d="M403.446 475.577C397.516 472.84 391.916 470.249 387.411 468.153C386.75 468.582 386.063 469.003 385.35 469.414C369.472 478.581 345.664 480.38 326.674 474.811L319.191 485.897C345.578 493.094 378.05 490.394 399.87 477.797C401.118 477.076 402.31 476.336 403.446 475.577Z" fill="#CFEDC2"/>
<path fill-rule="evenodd" clip-rule="evenodd" d="M299.293 477.797C327.067 493.831 372.098 493.831 399.872 477.797C427.645 461.763 427.645 435.767 399.872 419.733C372.098 403.699 327.067 403.699 299.293 419.733C271.519 435.767 271.519 461.763 299.293 477.797ZM313.813 469.414C333.568 480.819 365.597 480.819 385.352 469.414C405.106 458.01 405.106 439.52 385.352 428.115C365.597 416.711 333.568 416.711 313.813 428.115C294.058 439.52 294.058 458.01 313.813 469.414Z" stroke="#7ECE5A" stroke-width="1.86959"/>
<g filter="url(#filter1_f)">
<circle r="30.2116" transform="matrix(0.866044 0.499967 -0.866044 0.499967 368.373 214.997)" fill="#9EDA83"/>
</g>
<path d="M403.972 153.782L399.764 169.063L396.589 181.089L394.208 186.011L384.96 190.774L381.229 191.607L381.586 194.584L378.728 197.482C377.339 198.143 374.522 199.474 374.363 199.506C374.164 199.545 368.528 199.506 367.774 199.506C367.02 199.506 363.487 198.355 363.13 197.918C362.773 197.482 360.907 195.576 360.867 195.219C360.836 194.933 360.325 192.983 360.074 192.044L356.184 189.94L348.682 186.011L346.103 182.121L343.087 176.723L340.665 164.975L337.578 152.064C337.224 151.326 337.127 150.743 337.173 150.369L337.578 152.064C338.349 153.673 340.338 156.02 344.714 158.545C351.096 162.228 361.582 164.366 366.027 164.975L381.03 164.538C386.548 163.665 398.86 160.291 403.972 153.782Z" fill="#9EDA83"/>
<path d="M401.107 163.529L397.855 178.33C396.899 181.997 394.899 185.618 390.042 188.422C387.363 189.969 384.255 191.119 380.937 191.874M401.107 163.529C400.032 167.173 397.902 170.754 392.442 173.54C389.429 175.078 385.935 176.221 382.205 176.971C374.889 178.441 366.662 178.398 359.366 176.843C355.794 176.083 352.446 174.96 349.537 173.475C344.122 170.712 341.751 167.17 340.725 163.533M401.107 163.529L404.925 150.832M340.725 163.533L343.977 178.337C344.889 181.997 347.067 185.576 351.883 188.356C354.47 189.85 357.448 190.98 360.624 191.745M340.725 163.533L336.493 149.607M380.937 191.874C381.173 192.373 381.299 192.899 381.299 193.441C381.299 196.764 376.576 199.457 370.749 199.457C364.923 199.457 360.199 196.764 360.199 193.441C360.199 192.852 360.348 192.283 360.624 191.745M380.937 191.874C374.43 193.353 367.113 193.309 360.624 191.745M336.493 149.607L333.715 141.923C329.669 130.885 322.108 121.581 315.103 112.141C306.528 100.585 301.412 86.2688 301.412 70.8278C301.412 32.5344 332.455 1.49146 370.748 1.49146C409.042 1.49146 440.085 32.5344 440.085 70.8278C440.085 86.0993 435.1 100.256 426.706 111.735C419.577 121.485 411.847 131.094 407.849 142.492L404.925 150.832M336.493 149.607C337.946 153.131 340.836 156.747 346.149 159.458C349.524 161.18 353.408 162.483 357.551 163.365C366.015 165.168 375.558 165.219 384.045 163.513C388.373 162.643 392.426 161.317 395.92 159.534C400.769 157.06 403.42 154.006 404.925 150.832" stroke="#7ECE5A" stroke-width="1.86959"/>
<ellipse cx="403.283" cy="45.5597" rx="17.0322" ry="23.7205" transform="rotate(-42.7724 403.283 45.5597)" stroke="#7ECE5A" stroke-width="1.86959"/>
<g filter="url(#filter2_f)">
<rect width="86.399" height="20.2849" transform="matrix(-0.866044 0.499967 0.866044 0.499967 176.982 327.438)" fill="#9EDA83"/>
</g>
<path d="M197.352 146.656L187.041 140.708C185.206 139.536 183.274 138.529 181.252 137.691L167.874 160.861L167.918 160.877L167.909 160.889L187.784 172.371L197.352 146.656Z" fill="#7ECE5A"/>
<path fill-rule="evenodd" clip-rule="evenodd" d="M167.649 187.72C178.06 200.89 181.795 224.747 168.805 247.246C168.554 247.681 167.102 248.634 165.559 249.647C163.834 250.78 161.994 251.987 161.597 252.625C161.597 255.061 160.115 256.697 159.462 257.418C159.326 257.569 159.225 257.68 159.183 257.75C158.131 259.467 156.715 262.106 155.788 263.92C154.865 265.728 154.08 266.453 153.516 266.975C152.913 267.533 152.561 267.858 152.561 269.028L150.414 271.499L146.896 276.127C141.986 282.587 135.807 287.376 130.364 290.448C127.802 291.894 125.149 293.104 122.567 293.958C122.873 294.696 123.262 295.817 123.483 296.484L121.818 301.791L110.243 295.098L110.232 295.097L110.232 289.876C110.232 287.768 109.337 285.927 107.395 284.338C105.981 283.181 104.831 282.658 103.602 282.099C102.882 281.772 102.136 281.432 101.294 280.946C85.2623 271.689 85.2646 241.671 101.299 213.9C117.334 186.128 143.328 171.12 159.36 180.378L159.465 180.439L159.466 180.434L171.084 187.175C170.158 187.323 168.884 187.525 167.649 187.72ZM148.571 241.198C158.649 223.743 158.651 204.877 148.575 199.058C138.499 193.24 124.276 205.481 114.199 222.935C104.121 240.389 102.004 256.448 112.08 262.266C112.148 262.305 112.33 262.389 112.597 262.513C113.842 263.089 116.944 264.523 119.147 266.326C121.292 268.081 123.635 270.815 124.777 275.189C126.471 274.729 128.449 273.916 130.536 272.738C132.569 271.591 134.356 270.296 135.809 269.028C136.932 263.152 139.339 257.556 141.563 253.201C143.109 250.177 144.702 247.485 145.986 245.387C146.732 244.169 147.239 243.359 147.621 242.75L147.622 242.749C148.038 242.085 148.306 241.658 148.571 241.198Z" fill="#7ECE5A"/>
<path d="M189.402 208.452L208.319 197.53C208.327 197.4 208.335 197.27 208.343 197.14L219.896 190.461L208.321 183.784L208.32 183.771L189.403 194.692L189.404 194.698L189.396 194.702L189.404 194.707C189.598 196.853 189.698 199.085 189.697 201.401C189.697 203.724 189.597 206.076 189.402 208.452Z" fill="#7ECE5A"/>
<path d="M136.238 142.167V142.146C134.272 143.111 132.286 144.171 130.281 145.328C128.277 146.485 126.29 147.719 124.323 149.026L124.321 170.87C126.281 169.514 128.269 168.251 130.28 167.09C132.29 165.929 134.278 164.897 136.237 163.991L136.237 155.691L142.875 155.112L147.813 148.848L136.238 142.167Z" fill="#7ECE5A"/>
<path d="M79.3077 196.548L92.683 204.272C89.6013 208.962 86.7774 213.853 84.2568 218.866L70.8815 211.142C73.4731 206.162 76.2905 201.283 79.3077 196.548Z" fill="#7ECE5A"/>
<path d="M71.1468 262.968L52.23 273.889C52.0819 276.245 52.0064 278.583 52.0062 280.897C52.006 283.212 52.0812 285.463 52.2291 287.649L71.1459 276.727C71.1348 276.605 71.124 276.482 71.1136 276.36L82.712 269.658L71.1461 262.976C71.1464 262.973 71.1466 262.971 71.1468 262.968Z" fill="#7ECE5A"/>
<path d="M77.5494 306.288C88.8715 319.367 108.256 321.107 130.269 308.398C152.205 295.734 171.532 271.734 182.874 245.685L197.273 244.312L208.824 250.987L198.297 252.027C198.457 253.075 198.475 254.007 198.172 254.669C183.909 285.798 156.63 310.86 130.268 326.081C112.771 336.183 96.6093 338.942 83.5491 335.368L86.4486 338.5L75.6508 332.237C70.8551 329.678 66.6476 326.084 63.1509 321.526L77.5494 306.288Z" fill="#7ECE5A"/>
<path d="M200.979 215.134L189.41 208.441C189.41 208.441 189.692 204.259 189.69 201.575C189.689 198.887 189.4 194.697 189.4 194.697C193.044 196.192 200.914 201.345 200.988 201.373C201.063 201.401 203.029 200.878 204.283 201.691L206.061 207.919L200.979 215.134Z" fill="#7ECE5A"/>
<path d="M63.8047 280.583L52.2361 273.887L52.2324 287.645L63.8047 294.337V280.583Z" fill="#7ECE5A"/>
<path d="M135.906 177.553L124.329 170.87L124.327 149.041L135.906 155.715V177.553Z" fill="#7ECE5A"/>
<path fill-rule="evenodd" clip-rule="evenodd" d="M170.929 254.117C186.964 226.346 186.966 196.328 170.934 187.071C154.903 177.813 128.908 192.821 112.873 220.592C96.8389 248.363 96.8367 278.381 112.868 287.639C113.71 288.125 114.456 288.464 115.176 288.792C116.405 289.35 117.556 289.874 118.97 291.031C120.911 292.62 121.807 294.46 121.807 296.569L121.806 301.79L125.773 302.005C130.515 302.262 136.435 300.247 141.938 297.141C147.381 294.069 153.56 289.28 158.47 282.82L161.989 278.191L161.989 273.369C161.989 271.105 162.922 268.186 164.834 264.442C165.761 262.628 166.801 260.852 167.852 259.134C168.098 258.734 168.417 258.22 168.765 257.662C169.517 256.453 170.398 255.037 170.929 254.117ZM160.149 205.751C170.225 211.57 170.223 230.436 160.146 247.89C159.88 248.351 159.612 248.778 159.196 249.442C158.814 250.052 158.307 250.861 157.561 252.08C156.276 254.178 154.683 256.87 153.138 259.894C150.913 264.249 148.506 269.845 147.383 275.721C145.93 276.989 144.143 278.284 142.111 279.431C140.024 280.609 138.045 281.422 136.352 281.882C135.209 277.508 132.867 274.774 130.721 273.019C128.518 271.216 125.416 269.781 124.172 269.206C123.904 269.082 123.722 268.998 123.654 268.959C113.578 263.14 113.579 244.274 123.657 226.819C133.735 209.365 150.073 199.932 160.149 205.751Z" fill="#9EDA83"/>
<path d="M219.893 204.223L200.976 215.145C201.172 212.769 201.272 210.416 201.272 208.094C201.272 205.772 201.172 203.535 200.977 201.385L219.894 190.463C220.042 192.649 220.117 194.899 220.117 197.213C220.117 199.528 220.041 201.866 219.893 204.223Z" fill="#9EDA83"/>
<path d="M201.251 149.249L187.873 172.418C185.353 170.315 182.53 168.685 179.448 167.553L192.826 144.384C195.843 145.634 198.66 147.261 201.251 149.249Z" fill="#9EDA83"/>
<path d="M147.813 148.839L147.811 170.684C145.852 171.59 143.865 172.622 141.854 173.782C139.843 174.943 137.855 176.206 135.896 177.563L135.897 155.718C137.864 154.412 139.851 153.178 141.856 152.02C143.86 150.863 145.846 149.803 147.813 148.839Z" fill="#9EDA83"/>
<path d="M90.882 203.241L104.257 210.965C101.176 215.654 98.3517 220.545 95.8311 225.559L82.4558 217.835C85.0474 212.855 87.8648 207.975 90.882 203.241Z" fill="#9EDA83"/>
<path d="M63.8043 280.582L82.7211 269.66C82.526 272.035 82.4259 274.388 82.4257 276.71C82.4256 279.032 82.5253 281.27 82.7202 283.42L63.8034 294.341C63.6555 292.156 63.5803 289.905 63.5805 287.59C63.5807 285.276 63.6562 282.938 63.8043 280.582Z" fill="#9EDA83"/>
<path d="M89.1237 312.981C100.446 326.06 119.83 327.8 141.843 315.091C163.779 302.426 183.107 278.426 194.448 252.378L208.853 250.99C195.019 284.832 170.181 316.412 141.842 332.773C113.426 349.179 88.5328 346.218 74.7252 328.218L89.1237 312.981Z" fill="#9EDA83"/>
<path d="M89.1211 312.975L77.5525 306.283L63.1539 321.524L74.7316 328.212L89.1211 312.975Z" fill="#7ECE5A"/>
<path d="M643.046 234.16C643.913 225.107 636.98 200.647 619.068 213.648C599.008 228.207 597.978 276.339 597.978 287.028C596.533 280.384 586.503 266.404 570.821 280.095C558.707 290.67 554.398 302.885 552.779 317.049" stroke="#5EC231" stroke-width="1.86959"/>
<circle cx="551.833" cy="327.409" r="9.52818" fill="white" stroke="#5EC231" stroke-width="1.86959"/>
<g opacity="0.4" filter="url(#filter3_f)">
<circle r="8.18544" transform="matrix(0.866044 0.499967 -0.866044 0.499967 551.029 351.169)" fill="#5EC231"/>
</g>
<defs>
<filter id="filter0_f" x="255.949" y="448.294" width="187.266" height="130.236" filterUnits="userSpaceOnUse" color-interpolation-filters="sRGB">
<feFlood flood-opacity="0" result="BackgroundImageFix"/>
<feBlend mode="normal" in="SourceGraphic" in2="BackgroundImageFix" result="shape"/>
<feGaussianBlur stdDeviation="13.0871" result="effect1_foregroundBlur"/>
</filter>
<filter id="filter1_f" x="294.914" y="157.179" width="146.919" height="115.637" filterUnits="userSpaceOnUse" color-interpolation-filters="sRGB">
<feFlood flood-opacity="0" result="BackgroundImageFix"/>
<feBlend mode="normal" in="SourceGraphic" in2="BackgroundImageFix" result="shape"/>
<feGaussianBlur stdDeviation="18.2285" result="effect1_foregroundBlur"/>
</filter>
<filter id="filter2_f" x="75.982" y="301.263" width="144.741" height="105.687" filterUnits="userSpaceOnUse" color-interpolation-filters="sRGB">
<feFlood flood-opacity="0" result="BackgroundImageFix"/>
<feBlend mode="normal" in="SourceGraphic" in2="BackgroundImageFix" result="shape"/>
<feGaussianBlur stdDeviation="13.0871" result="effect1_foregroundBlur"/>
</filter>
<filter id="filter3_f" x="533.873" y="338.251" width="34.3118" height="25.8364" filterUnits="userSpaceOnUse" color-interpolation-filters="sRGB">
<feFlood flood-opacity="0" result="BackgroundImageFix"/>
<feBlend mode="normal" in="SourceGraphic" in2="BackgroundImageFix" result="shape"/>
<feGaussianBlur stdDeviation="3.5653" result="effect1_foregroundBlur"/>
</filter>
</defs>
</svg>