<svg width="72" height="25" viewBox="0 0 72 25" fill="none" xmlns="http://www.w3.org/2000/svg">
<path d="M68.4023 4.95638H65.3011V0.614746H58.4916L55.36 4.95638H49.7953L47.9346 6.81707V4.95638H43.5929V0.614746H29.9478V4.95638H10.7516L7.61944 0.614746H0.796875V15.5003L9.48013 24.1836H18.1634V21.7027L20.6443 24.1836H37.3906V21.7027L39.8715 24.1836H47.9346V21.7027L50.4155 24.1836H65.9213L71.5034 18.6015V8.05754L68.4023 4.95638ZM11.3408 11.1587H6.9992V12.3992H11.3408V17.361H4.51827L2.03734 14.8801V1.85521H6.9992V6.19684H11.3408V11.1587ZM29.9478 17.361H15.0622L12.5813 14.8801V6.19684H17.5432V12.3992H18.7836V6.19684H23.7455V12.3992H24.986V6.19684H29.9478V17.361ZM36.1501 17.361H31.1883V6.19684H36.1501V17.361ZM36.1501 4.95638H31.1883V1.85521H36.1501V4.95638ZM46.6941 11.1587H42.3525V12.3992H46.6941V17.361H39.8715L37.3906 14.8801V1.85521H42.3525V6.19684H46.6941V11.1587ZM57.8583 11.1587H52.8964V12.3992H57.8583V17.361H50.4155L47.9346 14.8801V8.67777L50.4155 6.19684H57.8583V11.1587ZM70.263 17.361H65.3011V11.1587H64.0606V17.361H59.0988V1.85521H64.0606V6.19684H67.782L70.263 8.67777V17.361Z" fill="white"/>
</svg>
