<svg width="90" height="21" viewBox="0 0 90 21" fill="none" xmlns="http://www.w3.org/2000/svg">
<path fill-rule="evenodd" clip-rule="evenodd" d="M28.482 3.89605C28.1579 2.68126 27.199 1.72304 25.979 1.39461C23.7732 0.805176 14.9226 0.805176 14.9226 0.805176C14.9226 0.805176 6.0766 0.805176 3.86621 1.39461C2.65078 1.71851 1.69187 2.67684 1.36323 3.89605C0.773437 6.10056 0.773438 10.703 0.773438 10.703C0.773438 10.703 0.773437 15.3056 1.36323 17.5102C1.68733 18.7249 2.64625 19.6832 3.86621 20.0116C6.0766 20.601 14.9226 20.601 14.9226 20.601C14.9226 20.601 23.7732 20.601 25.979 20.0116C27.1946 19.6877 28.1534 18.7294 28.482 17.5102C29.0718 15.3056 29.0718 10.7032 29.0718 10.7032C29.0718 10.7032 29.0718 6.10056 28.482 3.89605Z" fill="#FF0000"/>
<path fill-rule="evenodd" clip-rule="evenodd" d="M12.0957 14.9461L19.4471 10.7035L12.0957 6.46094V14.9461Z" fill="white"/>
<path fill-rule="evenodd" clip-rule="evenodd" d="M41.847 18.8154C41.2888 18.4376 40.8881 17.8527 40.6541 17.0564C40.4199 16.26 40.2983 15.2028 40.2983 13.88V12.0804C40.2983 10.7442 40.4334 9.67348 40.7035 8.8635C40.9736 8.05375 41.3968 7.46443 41.9685 7.09543C42.5402 6.72654 43.2921 6.53761 44.2239 6.53761C45.1423 6.53761 45.8761 6.72654 46.4298 7.1045C46.9835 7.48234 47.3887 8.07177 47.6453 8.87257C47.9019 9.67348 48.028 10.7442 48.028 12.0759V13.8756C48.028 15.1982 47.9019 16.26 47.6543 17.0608C47.4067 17.8616 47.0016 18.4511 46.4388 18.82C45.8806 19.1889 45.1198 19.378 44.1608 19.378C43.1795 19.3823 42.4052 19.1934 41.847 18.8154ZM44.9847 16.8719C45.1378 16.467 45.2189 15.8056 45.2189 14.8924V11.0277C45.2189 10.1368 45.1423 9.48898 44.9847 9.07509C44.8317 8.66563 44.5571 8.45869 44.1654 8.45869C43.7873 8.45869 43.5216 8.66563 43.3641 9.07509C43.211 9.48444 43.13 10.1368 43.13 11.0277V14.8924C43.13 15.8101 43.2021 16.4715 43.3506 16.8719C43.4992 17.2769 43.7693 17.4793 44.161 17.4793C44.5571 17.4793 44.8272 17.2769 44.9847 16.8719ZM84.8256 14.537C84.8256 15.3332 84.8482 15.9271 84.8978 16.3275C84.9427 16.7235 85.0418 17.0159 85.1903 17.1959C85.3389 17.3758 85.5684 17.4703 85.879 17.4703C86.2978 17.4703 86.5858 17.3084 86.7389 16.9843C86.892 16.6604 86.9774 16.1205 86.991 15.3647L89.3994 15.5042C89.413 15.6121 89.4174 15.7606 89.4174 15.9495C89.4174 17.0969 89.1023 17.9516 88.4766 18.5185C87.8508 19.0854 86.964 19.3688 85.8161 19.3688C84.4385 19.3688 83.4752 18.9369 82.9214 18.0731C82.3677 17.2093 82.0931 15.8776 82.0931 14.069V11.905C82.0931 10.0424 82.3812 8.68807 82.9528 7.82891C83.5246 6.97405 84.506 6.54657 85.8972 6.54657C86.856 6.54657 87.5898 6.72212 88.1029 7.07299C88.6162 7.42386 88.9763 7.96819 89.1879 8.71062C89.395 9.45294 89.5031 10.4788 89.5031 11.7835V13.9071H84.8256V14.537ZM85.1813 8.6926C85.0417 8.86815 84.9472 9.15601 84.8976 9.55199C84.8481 9.94785 84.8256 10.5553 84.8256 11.3605V12.2514H86.8694V11.3605C86.8694 10.5641 86.8425 9.96134 86.7884 9.55199C86.7344 9.14253 86.6354 8.85013 86.4958 8.68365C86.3562 8.51717 86.1356 8.43171 85.8385 8.43171C85.5414 8.42718 85.3209 8.51716 85.1813 8.6926ZM35.0492 13.6776L31.8711 2.20951H34.6441L35.7561 7.40596C36.0397 8.68818 36.2468 9.77695 36.3818 10.6812H36.4628C36.5574 10.0333 36.7644 8.94907 37.0886 7.42386L38.241 2.20497H41.0141L37.7999 13.6776V19.1799H35.0492V13.6776ZM57.0451 6.7806V19.1754H54.8616L54.6185 17.6592H54.56C53.9658 18.8065 53.0745 19.3779 51.8904 19.3779C51.0667 19.3779 50.4589 19.1079 50.0673 18.568C49.6756 18.0281 49.482 17.1869 49.482 16.0396V6.7806H52.2732V15.8821C52.2732 16.4355 52.3317 16.8315 52.4532 17.0654C52.5748 17.2993 52.7773 17.4208 53.061 17.4208C53.3041 17.4208 53.5381 17.3487 53.7587 17.2004C53.9793 17.0519 54.1459 16.8629 54.2539 16.6335V6.78048L57.0451 6.7806ZM71.3698 6.7806V19.1754H69.1864L68.9432 17.6592H68.8847C68.2905 18.8065 67.3992 19.3779 66.2152 19.3779C65.3914 19.3779 64.7836 19.1079 64.392 18.568C64.0003 18.0281 63.8068 17.1869 63.8068 16.0396V6.7806H66.5979V15.8821C66.5979 16.4355 66.6564 16.8315 66.778 17.0654C66.8994 17.2993 67.1021 17.4208 67.3857 17.4208C67.6288 17.4208 67.8629 17.3487 68.0834 17.2004C68.304 17.0519 68.4706 16.8629 68.5787 16.6335V6.78048L71.3698 6.7806Z" fill="white"/>
<path fill-rule="evenodd" clip-rule="evenodd" d="M64.6351 4.45492H61.862V19.1757H59.1294V4.45492H56.3563V2.20995H64.6305V4.45492H64.6351ZM80.6119 8.76489C80.4409 7.98212 80.1708 7.41523 79.7926 7.06436C79.4145 6.71338 78.8968 6.53794 78.2349 6.53794C77.7219 6.53794 77.2446 6.68187 76.7989 6.97438C76.3533 7.26224 76.0111 7.64473 75.768 8.11709H75.7456V1.58447H73.0534V19.1802H75.3583L75.6419 18.006H75.7006C75.9166 18.4244 76.2407 18.7529 76.6728 18.9957C77.105 19.2387 77.5823 19.3602 78.1089 19.3602C79.0544 19.3602 79.7476 18.9238 80.1934 18.0554C80.6389 17.1872 80.8596 15.8285 80.8596 13.9794V12.0177C80.8641 10.632 80.7785 9.54767 80.6119 8.76489ZM78.0504 13.8218C78.0504 14.7262 78.0144 15.4325 77.9379 15.9454C77.8658 16.4584 77.7398 16.8227 77.5643 17.0387C77.3886 17.2546 77.1546 17.3626 76.8575 17.3626C76.6278 17.3626 76.4163 17.3087 76.2182 17.2007C76.0246 17.0927 75.8626 16.9307 75.741 16.7147V9.67381C75.8356 9.33631 75.9977 9.06193 76.2273 8.84604C76.4568 8.63003 76.7044 8.52203 76.9745 8.52203C77.2581 8.52203 77.4787 8.63445 77.6317 8.85488C77.7848 9.07542 77.8929 9.45326 77.9558 9.97515C78.0145 10.5016 78.0459 11.2484 78.0459 12.2201V13.8218H78.0504Z" fill="white"/>
</svg>
